<mxfile host="app.diagrams.net" agent="Mozilla/5.0 (Windows NT 10.0; Win64; x64; rv:132.0) Gecko/20100101 Firefox/132.0" version="24.8.6">
  <diagram name="Page-1" id="4nNioH1ttdc5iFACTjpy">
    <mxGraphModel dx="2318" dy="2063" grid="1" gridSize="10" guides="1" tooltips="1" connect="1" arrows="1" fold="1" page="1" pageScale="1" pageWidth="850" pageHeight="1100" math="0" shadow="0">
      <root>
        <mxCell id="0" />
        <mxCell id="1" parent="0" />
        <mxCell id="ETQeIEWVsQt0lUyBYQo2-195" style="rounded=0;orthogonalLoop=1;jettySize=auto;html=1;exitX=0;exitY=0.25;exitDx=0;exitDy=0;entryX=0.5;entryY=1;entryDx=0;entryDy=0;endArrow=none;endFill=0;" parent="1" source="ETQeIEWVsQt0lUyBYQo2-198" target="ETQeIEWVsQt0lUyBYQo2-240" edge="1">
          <mxGeometry relative="1" as="geometry" />
        </mxCell>
        <mxCell id="ETQeIEWVsQt0lUyBYQo2-196" style="rounded=0;orthogonalLoop=1;jettySize=auto;html=1;exitX=0.75;exitY=0;exitDx=0;exitDy=0;entryX=0;entryY=1;entryDx=0;entryDy=0;endArrow=none;endFill=0;" parent="1" source="ETQeIEWVsQt0lUyBYQo2-198" target="ETQeIEWVsQt0lUyBYQo2-241" edge="1">
          <mxGeometry relative="1" as="geometry" />
        </mxCell>
        <mxCell id="ETQeIEWVsQt0lUyBYQo2-197" style="rounded=0;orthogonalLoop=1;jettySize=auto;html=1;exitX=1;exitY=0.25;exitDx=0;exitDy=0;entryX=0;entryY=1;entryDx=0;entryDy=0;startArrow=none;startFill=0;endArrow=none;endFill=0;" parent="1" source="ETQeIEWVsQt0lUyBYQo2-198" target="ETQeIEWVsQt0lUyBYQo2-242" edge="1">
          <mxGeometry relative="1" as="geometry" />
        </mxCell>
        <mxCell id="ETQeIEWVsQt0lUyBYQo2-198" value="&lt;font style=&quot;font-size: 18px;&quot;&gt;Stock&lt;/font&gt;" style="whiteSpace=wrap;html=1;align=center;fillColor=#647687;fontColor=#ffffff;strokeColor=#314354;" parent="1" vertex="1">
          <mxGeometry x="-460" y="180" width="210" height="70" as="geometry" />
        </mxCell>
        <mxCell id="ETQeIEWVsQt0lUyBYQo2-199" style="rounded=0;orthogonalLoop=1;jettySize=auto;html=1;exitX=0;exitY=0;exitDx=0;exitDy=0;entryX=0.5;entryY=1;entryDx=0;entryDy=0;endArrow=none;endFill=0;" parent="1" source="ETQeIEWVsQt0lUyBYQo2-207" target="ETQeIEWVsQt0lUyBYQo2-225" edge="1">
          <mxGeometry relative="1" as="geometry" />
        </mxCell>
        <mxCell id="ETQeIEWVsQt0lUyBYQo2-200" style="rounded=0;orthogonalLoop=1;jettySize=auto;html=1;exitX=0.373;exitY=1;exitDx=0;exitDy=0;entryX=1;entryY=0;entryDx=0;entryDy=0;startArrow=none;startFill=0;endArrow=none;endFill=0;exitPerimeter=0;" parent="1" source="ETQeIEWVsQt0lUyBYQo2-207" target="ETQeIEWVsQt0lUyBYQo2-226" edge="1">
          <mxGeometry relative="1" as="geometry">
            <mxPoint x="137.49999999999977" y="568.75" as="sourcePoint" />
          </mxGeometry>
        </mxCell>
        <mxCell id="ETQeIEWVsQt0lUyBYQo2-201" style="rounded=0;orthogonalLoop=1;jettySize=auto;html=1;exitX=0.5;exitY=1;exitDx=0;exitDy=0;entryX=0.5;entryY=0;entryDx=0;entryDy=0;endArrow=none;endFill=0;" parent="1" source="ETQeIEWVsQt0lUyBYQo2-207" target="ETQeIEWVsQt0lUyBYQo2-227" edge="1">
          <mxGeometry relative="1" as="geometry">
            <mxPoint x="189.99999999999977" y="568.75" as="sourcePoint" />
          </mxGeometry>
        </mxCell>
        <mxCell id="ETQeIEWVsQt0lUyBYQo2-202" style="rounded=0;orthogonalLoop=1;jettySize=auto;html=1;exitX=0.75;exitY=1;exitDx=0;exitDy=0;entryX=0.5;entryY=0;entryDx=0;entryDy=0;endArrow=none;endFill=0;" parent="1" source="ETQeIEWVsQt0lUyBYQo2-207" target="ETQeIEWVsQt0lUyBYQo2-228" edge="1">
          <mxGeometry relative="1" as="geometry">
            <mxPoint x="242.49999999999977" y="568.75" as="sourcePoint" />
          </mxGeometry>
        </mxCell>
        <mxCell id="ETQeIEWVsQt0lUyBYQo2-203" style="rounded=0;orthogonalLoop=1;jettySize=auto;html=1;exitX=0.25;exitY=1;exitDx=0;exitDy=0;entryX=1;entryY=0;entryDx=0;entryDy=0;endArrow=none;endFill=0;" parent="1" source="ETQeIEWVsQt0lUyBYQo2-207" target="ETQeIEWVsQt0lUyBYQo2-233" edge="1">
          <mxGeometry relative="1" as="geometry">
            <mxPoint x="-147.5" y="423.75" as="sourcePoint" />
          </mxGeometry>
        </mxCell>
        <mxCell id="ETQeIEWVsQt0lUyBYQo2-204" style="rounded=0;orthogonalLoop=1;jettySize=auto;html=1;exitX=0.5;exitY=0;exitDx=0;exitDy=0;entryX=0.5;entryY=1;entryDx=0;entryDy=0;endArrow=none;endFill=0;" parent="1" source="ETQeIEWVsQt0lUyBYQo2-207" target="ETQeIEWVsQt0lUyBYQo2-269" edge="1">
          <mxGeometry relative="1" as="geometry" />
        </mxCell>
        <mxCell id="ETQeIEWVsQt0lUyBYQo2-207" value="&lt;font style=&quot;font-size: 18px;&quot;&gt;User&lt;/font&gt;" style="whiteSpace=wrap;html=1;align=center;fillColor=#647687;fontColor=#ffffff;strokeColor=#314354;" parent="1" vertex="1">
          <mxGeometry x="90" y="378" width="210" height="70" as="geometry" />
        </mxCell>
        <mxCell id="ETQeIEWVsQt0lUyBYQo2-208" style="rounded=0;orthogonalLoop=1;jettySize=auto;html=1;exitX=0.25;exitY=1;exitDx=0;exitDy=0;entryX=0.5;entryY=0;entryDx=0;entryDy=0;endArrow=none;endFill=0;" parent="1" edge="1">
          <mxGeometry relative="1" as="geometry">
            <mxPoint x="2.5" y="150" as="sourcePoint" />
          </mxGeometry>
        </mxCell>
        <mxCell id="ETQeIEWVsQt0lUyBYQo2-209" style="rounded=0;orthogonalLoop=1;jettySize=auto;html=1;exitX=0;exitY=0.5;exitDx=0;exitDy=0;entryX=1;entryY=0;entryDx=0;entryDy=0;endArrow=none;endFill=0;" parent="1" edge="1">
          <mxGeometry relative="1" as="geometry">
            <mxPoint x="-50" y="115" as="sourcePoint" />
          </mxGeometry>
        </mxCell>
        <mxCell id="ETQeIEWVsQt0lUyBYQo2-210" style="rounded=0;orthogonalLoop=1;jettySize=auto;html=1;exitX=0;exitY=0.25;exitDx=0;exitDy=0;entryX=1;entryY=0.5;entryDx=0;entryDy=0;endArrow=none;endFill=0;" parent="1" edge="1">
          <mxGeometry relative="1" as="geometry">
            <mxPoint x="-50" y="97.5" as="sourcePoint" />
          </mxGeometry>
        </mxCell>
        <mxCell id="ETQeIEWVsQt0lUyBYQo2-211" style="rounded=0;orthogonalLoop=1;jettySize=auto;html=1;exitX=0;exitY=0;exitDx=0;exitDy=0;entryX=1;entryY=1;entryDx=0;entryDy=0;endArrow=none;endFill=0;" parent="1" edge="1">
          <mxGeometry relative="1" as="geometry">
            <mxPoint x="-50" y="80" as="sourcePoint" />
          </mxGeometry>
        </mxCell>
        <mxCell id="ETQeIEWVsQt0lUyBYQo2-212" style="rounded=0;orthogonalLoop=1;jettySize=auto;html=1;exitX=0.25;exitY=0;exitDx=0;exitDy=0;entryX=0.5;entryY=1;entryDx=0;entryDy=0;endArrow=none;endFill=0;" parent="1" edge="1">
          <mxGeometry relative="1" as="geometry">
            <mxPoint x="2.5" y="80" as="sourcePoint" />
          </mxGeometry>
        </mxCell>
        <mxCell id="ETQeIEWVsQt0lUyBYQo2-213" style="rounded=0;orthogonalLoop=1;jettySize=auto;html=1;exitX=0.5;exitY=0;exitDx=0;exitDy=0;entryX=0.5;entryY=1;entryDx=0;entryDy=0;endArrow=none;endFill=0;" parent="1" edge="1">
          <mxGeometry relative="1" as="geometry">
            <mxPoint x="55" y="80" as="sourcePoint" />
          </mxGeometry>
        </mxCell>
        <mxCell id="ETQeIEWVsQt0lUyBYQo2-223" style="rounded=0;orthogonalLoop=1;jettySize=auto;html=1;exitX=0.5;exitY=0;exitDx=0;exitDy=0;endArrow=none;endFill=0;entryX=0;entryY=1;entryDx=0;entryDy=0;" parent="1" source="ETQeIEWVsQt0lUyBYQo2-229" target="ETQeIEWVsQt0lUyBYQo2-228" edge="1">
          <mxGeometry relative="1" as="geometry">
            <mxPoint x="300" y="587.69" as="targetPoint" />
            <mxPoint x="327.26504975671287" y="636.632198430844" as="sourcePoint" />
          </mxGeometry>
        </mxCell>
        <mxCell id="ETQeIEWVsQt0lUyBYQo2-224" value="PhoneNumber" style="ellipse;whiteSpace=wrap;html=1;align=center;strokeColor=#23445d;fillColor=#bac8d3;" parent="1" vertex="1">
          <mxGeometry x="65" y="258.75" width="120" height="60" as="geometry" />
        </mxCell>
        <mxCell id="ETQeIEWVsQt0lUyBYQo2-225" value="&lt;font style=&quot;font-size: 14px;&quot;&gt;&lt;u&gt;UserID&lt;/u&gt;&lt;/font&gt;" style="ellipse;whiteSpace=wrap;html=1;align=center;strokeColor=#23445d;fillColor=#bac8d3;" parent="1" vertex="1">
          <mxGeometry x="-60" y="253.75" width="120" height="60" as="geometry" />
        </mxCell>
        <mxCell id="ETQeIEWVsQt0lUyBYQo2-226" value="E-mail" style="ellipse;whiteSpace=wrap;html=1;align=center;fillColor=#bac8d3;strokeColor=#23445d;" parent="1" vertex="1">
          <mxGeometry x="45" y="513.75" width="120" height="60" as="geometry" />
        </mxCell>
        <mxCell id="ETQeIEWVsQt0lUyBYQo2-227" value="Password" style="ellipse;whiteSpace=wrap;html=1;align=center;fillColor=#bac8d3;strokeColor=#23445d;" parent="1" vertex="1">
          <mxGeometry x="180" y="478.75" width="120" height="60" as="geometry" />
        </mxCell>
        <mxCell id="ETQeIEWVsQt0lUyBYQo2-228" value="Name" style="ellipse;whiteSpace=wrap;html=1;align=center;strokeColor=#23445d;fillColor=#bac8d3;" parent="1" vertex="1">
          <mxGeometry x="295" y="453.75" width="120" height="60" as="geometry" />
        </mxCell>
        <mxCell id="ETQeIEWVsQt0lUyBYQo2-229" value="FirstName" style="ellipse;whiteSpace=wrap;html=1;align=center;strokeColor=#23445d;fillColor=#bac8d3;" parent="1" vertex="1">
          <mxGeometry x="265" y="528.75" width="80" height="50" as="geometry" />
        </mxCell>
        <mxCell id="ETQeIEWVsQt0lUyBYQo2-230" value="LastName" style="ellipse;whiteSpace=wrap;html=1;align=center;strokeColor=#23445d;fillColor=#bac8d3;" parent="1" vertex="1">
          <mxGeometry x="370" y="518.75" width="80" height="50" as="geometry" />
        </mxCell>
        <mxCell id="ETQeIEWVsQt0lUyBYQo2-231" style="rounded=0;orthogonalLoop=1;jettySize=auto;html=1;exitX=1;exitY=1;exitDx=0;exitDy=0;endArrow=none;endFill=0;entryX=0.5;entryY=0;entryDx=0;entryDy=0;" parent="1" source="ETQeIEWVsQt0lUyBYQo2-228" target="ETQeIEWVsQt0lUyBYQo2-230" edge="1">
          <mxGeometry relative="1" as="geometry">
            <mxPoint x="360" y="578.69" as="targetPoint" />
            <mxPoint x="372.73495024328713" y="518.7478015691561" as="sourcePoint" />
          </mxGeometry>
        </mxCell>
        <mxCell id="ETQeIEWVsQt0lUyBYQo2-232" style="rounded=0;orthogonalLoop=1;jettySize=auto;html=1;exitX=0.25;exitY=0;exitDx=0;exitDy=0;entryX=1;entryY=1;entryDx=0;entryDy=0;endArrow=none;endFill=0;" parent="1" source="ETQeIEWVsQt0lUyBYQo2-207" target="ETQeIEWVsQt0lUyBYQo2-224" edge="1">
          <mxGeometry relative="1" as="geometry" />
        </mxCell>
        <mxCell id="ETQeIEWVsQt0lUyBYQo2-233" value="BDate" style="ellipse;whiteSpace=wrap;html=1;align=center;fillColor=#bac8d3;strokeColor=#23445d;" parent="1" vertex="1">
          <mxGeometry x="-70" y="458.75" width="120" height="60" as="geometry" />
        </mxCell>
        <mxCell id="ETQeIEWVsQt0lUyBYQo2-239" value="CompanyName" style="ellipse;whiteSpace=wrap;html=1;align=center;fillColor=#bac8d3;strokeColor=#23445d;" parent="1" vertex="1">
          <mxGeometry x="-550" width="120" height="60" as="geometry" />
        </mxCell>
        <mxCell id="ETQeIEWVsQt0lUyBYQo2-240" value="Symbol" style="ellipse;whiteSpace=wrap;html=1;align=center;fillColor=#bac8d3;strokeColor=#23445d;" parent="1" vertex="1">
          <mxGeometry x="-615" y="60" width="120" height="60" as="geometry" />
        </mxCell>
        <mxCell id="ETQeIEWVsQt0lUyBYQo2-241" value="&lt;font style=&quot;font-size: 14px;&quot;&gt;&lt;u&gt;StockID&lt;/u&gt;&lt;/font&gt;" style="ellipse;whiteSpace=wrap;html=1;align=center;fillColor=#bac8d3;strokeColor=#23445d;" parent="1" vertex="1">
          <mxGeometry x="-235" y="50" width="120" height="60" as="geometry" />
        </mxCell>
        <mxCell id="ETQeIEWVsQt0lUyBYQo2-242" value="OpenPrice" style="ellipse;whiteSpace=wrap;html=1;align=center;fillColor=#bac8d3;strokeColor=#23445d;" parent="1" vertex="1">
          <mxGeometry x="-180" y="120" width="120" height="60" as="geometry" />
        </mxCell>
        <mxCell id="ETQeIEWVsQt0lUyBYQo2-243" style="rounded=0;orthogonalLoop=1;jettySize=auto;html=1;exitX=0.25;exitY=0;exitDx=0;exitDy=0;entryX=1;entryY=1;entryDx=0;entryDy=0;endArrow=none;endFill=0;" parent="1" source="ETQeIEWVsQt0lUyBYQo2-198" target="ETQeIEWVsQt0lUyBYQo2-239" edge="1">
          <mxGeometry relative="1" as="geometry" />
        </mxCell>
        <mxCell id="ETQeIEWVsQt0lUyBYQo2-269" value="Username" style="ellipse;whiteSpace=wrap;html=1;align=center;strokeColor=#23445d;fillColor=#bac8d3;" parent="1" vertex="1">
          <mxGeometry x="200" y="253.75" width="120" height="60" as="geometry" />
        </mxCell>
        <mxCell id="ETQeIEWVsQt0lUyBYQo2-270" value="ClosePrice" style="ellipse;whiteSpace=wrap;html=1;align=center;fillColor=#bac8d3;strokeColor=#23445d;" parent="1" vertex="1">
          <mxGeometry x="-290" y="-20" width="120" height="60" as="geometry" />
        </mxCell>
        <mxCell id="ETQeIEWVsQt0lUyBYQo2-271" style="rounded=0;orthogonalLoop=1;jettySize=auto;html=1;exitX=0.5;exitY=1;exitDx=0;exitDy=0;entryX=0.621;entryY=0.001;entryDx=0;entryDy=0;entryPerimeter=0;endArrow=none;endFill=0;" parent="1" source="ETQeIEWVsQt0lUyBYQo2-270" target="ETQeIEWVsQt0lUyBYQo2-198" edge="1">
          <mxGeometry relative="1" as="geometry" />
        </mxCell>
        <mxCell id="ETQeIEWVsQt0lUyBYQo2-273" value="Change" style="ellipse;whiteSpace=wrap;html=1;align=center;fillColor=#bac8d3;strokeColor=#23445d;" parent="1" vertex="1">
          <mxGeometry x="-420" y="-10" width="120" height="60" as="geometry" />
        </mxCell>
        <mxCell id="ETQeIEWVsQt0lUyBYQo2-274" style="rounded=0;orthogonalLoop=1;jettySize=auto;html=1;exitX=0.5;exitY=0;exitDx=0;exitDy=0;entryX=0.5;entryY=1;entryDx=0;entryDy=0;endArrow=none;endFill=0;" parent="1" source="ETQeIEWVsQt0lUyBYQo2-198" target="ETQeIEWVsQt0lUyBYQo2-273" edge="1">
          <mxGeometry relative="1" as="geometry" />
        </mxCell>
        <mxCell id="ETQeIEWVsQt0lUyBYQo2-276" style="rounded=0;orthogonalLoop=1;jettySize=auto;html=1;exitX=0;exitY=0;exitDx=0;exitDy=0;entryX=1;entryY=1;entryDx=0;entryDy=0;endArrow=none;endFill=0;" parent="1" source="ETQeIEWVsQt0lUyBYQo2-278" target="ETQeIEWVsQt0lUyBYQo2-279" edge="1">
          <mxGeometry relative="1" as="geometry" />
        </mxCell>
        <mxCell id="ETQeIEWVsQt0lUyBYQo2-278" value="Prediction" style="whiteSpace=wrap;html=1;align=center;fillColor=#647687;fontColor=#ffffff;strokeColor=#314354;" parent="1" vertex="1">
          <mxGeometry x="-450" y="378" width="210" height="70" as="geometry" />
        </mxCell>
        <mxCell id="ETQeIEWVsQt0lUyBYQo2-279" value="Trend" style="ellipse;whiteSpace=wrap;html=1;align=center;fillColor=#bac8d3;strokeColor=#23445d;" parent="1" vertex="1">
          <mxGeometry x="-590" y="316" width="120" height="60" as="geometry" />
        </mxCell>
        <mxCell id="ETQeIEWVsQt0lUyBYQo2-281" value="&lt;u&gt;PredictionID&lt;/u&gt;" style="ellipse;whiteSpace=wrap;html=1;align=center;fillColor=#bac8d3;strokeColor=#23445d;" parent="1" vertex="1">
          <mxGeometry x="-610" y="398" width="120" height="60" as="geometry" />
        </mxCell>
        <mxCell id="ETQeIEWVsQt0lUyBYQo2-282" value="UserID" style="ellipse;whiteSpace=wrap;html=1;align=center;fillColor=#bac8d3;strokeColor=#23445d;" parent="1" vertex="1">
          <mxGeometry x="-600" y="478" width="120" height="60" as="geometry" />
        </mxCell>
        <mxCell id="ETQeIEWVsQt0lUyBYQo2-286" style="rounded=0;orthogonalLoop=1;jettySize=auto;html=1;exitX=0.25;exitY=1;exitDx=0;exitDy=0;entryX=0.995;entryY=0.543;entryDx=0;entryDy=0;entryPerimeter=0;endArrow=none;endFill=0;" parent="1" source="ETQeIEWVsQt0lUyBYQo2-278" target="ETQeIEWVsQt0lUyBYQo2-282" edge="1">
          <mxGeometry relative="1" as="geometry" />
        </mxCell>
        <mxCell id="ETQeIEWVsQt0lUyBYQo2-287" style="rounded=0;orthogonalLoop=1;jettySize=auto;html=1;exitX=1;exitY=0.5;exitDx=0;exitDy=0;entryX=-0.003;entryY=0.784;entryDx=0;entryDy=0;entryPerimeter=0;endArrow=none;endFill=0;" parent="1" source="ETQeIEWVsQt0lUyBYQo2-281" target="ETQeIEWVsQt0lUyBYQo2-278" edge="1">
          <mxGeometry relative="1" as="geometry" />
        </mxCell>
        <mxCell id="ETQeIEWVsQt0lUyBYQo2-303" style="rounded=0;orthogonalLoop=1;jettySize=auto;html=1;exitX=0.25;exitY=1;exitDx=0;exitDy=0;entryX=1;entryY=0.5;entryDx=0;entryDy=0;endArrow=none;endFill=0;" parent="1" edge="1">
          <mxGeometry relative="1" as="geometry">
            <mxPoint x="-497.5" y="793" as="sourcePoint" />
          </mxGeometry>
        </mxCell>
        <mxCell id="ETQeIEWVsQt0lUyBYQo2-304" style="rounded=0;orthogonalLoop=1;jettySize=auto;html=1;exitX=0;exitY=0.5;exitDx=0;exitDy=0;entryX=1;entryY=0.5;entryDx=0;entryDy=0;endArrow=none;endFill=0;" parent="1" edge="1">
          <mxGeometry relative="1" as="geometry">
            <mxPoint x="-550" y="758" as="sourcePoint" />
          </mxGeometry>
        </mxCell>
        <mxCell id="ETQeIEWVsQt0lUyBYQo2-305" style="rounded=0;orthogonalLoop=1;jettySize=auto;html=1;exitX=0.25;exitY=0;exitDx=0;exitDy=0;entryX=1;entryY=1;entryDx=0;entryDy=0;endArrow=none;endFill=0;" parent="1" edge="1">
          <mxGeometry relative="1" as="geometry">
            <mxPoint x="-497.5" y="723" as="sourcePoint" />
          </mxGeometry>
        </mxCell>
        <mxCell id="ETQeIEWVsQt0lUyBYQo2-317" style="rounded=0;orthogonalLoop=1;jettySize=auto;html=1;exitX=0;exitY=0.5;exitDx=0;exitDy=0;shape=link;entryX=1;entryY=0.5;entryDx=0;entryDy=0;" parent="1" source="ETQeIEWVsQt0lUyBYQo2-319" target="ETQeIEWVsQt0lUyBYQo2-278" edge="1">
          <mxGeometry relative="1" as="geometry">
            <mxPoint x="-230" y="413" as="targetPoint" />
          </mxGeometry>
        </mxCell>
        <mxCell id="ETQeIEWVsQt0lUyBYQo2-318" style="rounded=0;orthogonalLoop=1;jettySize=auto;html=1;exitX=1;exitY=0.5;exitDx=0;exitDy=0;entryX=0;entryY=0.5;entryDx=0;entryDy=0;endArrow=none;endFill=0;" parent="1" source="ETQeIEWVsQt0lUyBYQo2-319" target="ETQeIEWVsQt0lUyBYQo2-207" edge="1">
          <mxGeometry relative="1" as="geometry">
            <mxPoint x="93.57000000000016" y="412.9699999999998" as="targetPoint" />
          </mxGeometry>
        </mxCell>
        <mxCell id="ETQeIEWVsQt0lUyBYQo2-319" value="Has" style="shape=rhombus;perimeter=rhombusPerimeter;whiteSpace=wrap;html=1;align=center;" parent="1" vertex="1">
          <mxGeometry x="-160" y="383" width="120" height="60" as="geometry" />
        </mxCell>
        <mxCell id="ETQeIEWVsQt0lUyBYQo2-320" value="1" style="text;html=1;align=center;verticalAlign=middle;resizable=0;points=[];autosize=1;strokeColor=none;fillColor=none;" parent="1" vertex="1">
          <mxGeometry x="-50" y="385" width="30" height="30" as="geometry" />
        </mxCell>
        <mxCell id="ETQeIEWVsQt0lUyBYQo2-321" value="N" style="text;html=1;align=center;verticalAlign=middle;resizable=0;points=[];autosize=1;strokeColor=none;fillColor=none;" parent="1" vertex="1">
          <mxGeometry x="-175" y="383" width="30" height="30" as="geometry" />
        </mxCell>
        <mxCell id="ETQeIEWVsQt0lUyBYQo2-322" style="rounded=0;orthogonalLoop=1;jettySize=auto;html=1;exitX=0.5;exitY=1;exitDx=0;exitDy=0;entryX=0.5;entryY=0;entryDx=0;entryDy=0;endArrow=none;endFill=0;" parent="1" edge="1">
          <mxGeometry relative="1" as="geometry">
            <mxPoint x="-445" y="793" as="sourcePoint" />
          </mxGeometry>
        </mxCell>
      </root>
    </mxGraphModel>
  </diagram>
</mxfile>
